<?xml version="1.0" standalone="no"?>
<!DOCTYPE svg PUBLIC "-//W3C//DTD SVG 20010904//EN"
 "http://www.w3.org/TR/2001/REC-SVG-20010904/DTD/svg10.dtd">
<svg version="1.0" xmlns="http://www.w3.org/2000/svg"
 width="651.000000pt" height="651.000000pt" viewBox="0 0 651.000000 651.000000"
 preserveAspectRatio="xMidYMid meet">
<metadata>
Created by potrace 1.11, written by Peter Selinger 2001-2013
</metadata>
<g transform="translate(0.000000,651.000000) scale(0.100000,-0.100000)"
fill="#000000" stroke="none">
<path d="M2815 6430 c-3 -5 -1 -10 4 -10 6 0 11 5 11 10 0 6 -2 10 -4 10 -3 0
-8 -4 -11 -10z"/>
<path d="M2794 6412 c4 -6 -1 -11 -11 -11 -43 1 -104 -9 -115 -18 -7 -6 -21
-9 -30 -8 -10 2 -18 -1 -18 -6 0 -5 -11 -4 -25 1 -17 7 -24 6 -22 -1 1 -7 -35
-27 -81 -47 -65 -28 -96 -48 -150 -102 -37 -36 -76 -84 -87 -106 -11 -21 -23
-41 -26 -44 -3 -3 -19 -27 -34 -55 -16 -27 -33 -51 -37 -53 -4 -2 -8 -10 -8
-17 0 -8 -7 -20 -15 -29 -9 -8 -16 -19 -16 -23 -1 -4 -5 -7 -9 -6 -4 1 -6 -7
-3 -17 3 -12 0 -20 -6 -20 -7 0 -9 -4 -6 -10 3 -5 1 -10 -4 -10 -6 0 -11 -9
-11 -21 0 -11 -5 -17 -10 -14 -6 4 -7 12 -4 18 4 7 3 9 -1 4 -11 -9 -14 -48
-4 -42 4 3 2 -6 -4 -20 -7 -14 -16 -25 -20 -25 -5 0 -5 -4 -2 -10 3 -5 1 -10
-6 -10 -7 0 -10 -3 -6 -6 3 -3 -3 -28 -13 -54 -10 -26 -22 -71 -25 -100 -3
-29 -12 -80 -19 -114 -7 -33 -11 -79 -10 -101 4 -80 14 -148 24 -161 8 -8 7
-14 -2 -17 -10 -4 -10 -8 2 -16 8 -6 11 -11 6 -11 -5 0 3 -9 18 -21 14 -11 26
-27 26 -35 0 -8 4 -14 9 -14 5 0 14 -12 20 -27 6 -16 32 -68 58 -117 52 -96
153 -208 211 -233 18 -7 35 -20 39 -28 3 -8 10 -15 17 -15 13 0 40 -39 32 -48
-3 -3 3 -11 14 -19 11 -8 20 -20 20 -27 0 -7 11 -23 25 -36 14 -13 25 -29 25
-37 0 -7 7 -13 15 -13 8 0 15 -6 15 -13 0 -7 10 -22 23 -33 31 -28 65 -148 47
-169 -7 -8 -17 -15 -22 -15 -19 0 -125 -75 -191 -135 -75 -69 -151 -177 -168
-239 -13 -49 -21 -55 -71 -51 -21 2 -38 -1 -38 -6 0 -5 -10 -8 -22 -7 -26 1
-117 -41 -167 -77 -33 -24 -72 -31 -153 -25 -30 2 -102 -44 -169 -108 -23 -23
-50 -42 -59 -42 -32 0 -64 -46 -150 -216 -17 -35 -28 -68 -24 -78 3 -9 2 -22
-4 -29 -6 -6 -10 -28 -10 -48 0 -20 -5 -60 -11 -90 -6 -30 -13 -72 -15 -94 -3
-22 -14 -69 -26 -105 -12 -36 -23 -90 -25 -120 -4 -74 -14 -124 -30 -163 -7
-18 -15 -47 -18 -65 -3 -18 -10 -38 -15 -45 -18 -22 -26 -101 -23 -217 3 -74
-7 -258 -16 -295 -4 -16 -8 -39 -9 -50 -1 -11 -10 -56 -19 -100 -9 -44 -18
-129 -21 -190 -2 -60 -6 -128 -8 -150 -2 -22 -5 -115 -6 -208 -2 -100 -8 -188
-16 -219 -17 -64 -18 -118 -2 -155 6 -15 12 -37 13 -48 4 -46 115 -222 165
-262 32 -26 130 -66 189 -78 11 -2 24 -6 29 -8 7 -5 122 -20 159 -21 25 0 21
-11 -18 -43 -46 -39 -62 -86 -55 -162 4 -36 9 -95 12 -131 3 -36 11 -81 19
-101 8 -20 11 -39 8 -43 -4 -3 737 -6 1645 -6 l1652 0 1 88 c1 48 3 98 5 112
2 14 4 51 4 83 1 45 5 60 18 64 49 16 182 87 201 107 21 22 130 227 136 256 7
31 36 104 46 117 6 7 9 13 6 13 -3 0 -1 17 3 37 6 24 5 42 -2 50 -7 9 -2 21
21 44 39 39 40 71 2 127 l-28 44 24 71 c14 39 32 76 39 82 20 14 42 108 42
180 1 67 -19 120 -69 190 -27 38 -32 53 -30 96 1 28 10 69 21 92 11 22 20 47
20 54 0 8 -24 37 -52 64 -29 28 -53 56 -53 62 -1 7 11 35 25 62 39 77 72 163
75 198 3 37 -48 172 -76 203 -10 11 -19 33 -19 50 0 16 -5 49 -11 74 -6 25
-12 59 -14 75 -3 17 -9 44 -14 62 -5 17 -8 33 -6 35 19 20 21 227 2 264 -8 16
-15 45 -15 65 -1 20 -13 67 -27 105 -14 38 -46 126 -70 197 -72 205 -111 261
-220 311 -89 42 -125 57 -143 61 -38 7 -118 27 -132 32 -22 9 -20 8 -235 79
-110 36 -214 72 -231 81 -18 8 -47 16 -65 18 -174 19 -149 6 -259 139 -90 110
-127 146 -149 146 -25 0 -135 71 -139 91 -6 21 -9 39 -16 90 -4 25 -9 58 -12
74 -4 25 9 67 38 120 16 28 29 82 33 136 2 38 10 54 41 87 22 22 47 57 58 78
10 22 23 48 28 58 11 21 14 40 23 136 12 117 12 150 3 203 -5 29 -10 70 -12
92 -1 22 -10 57 -19 79 -9 21 -17 44 -17 50 0 7 -5 17 -11 23 -6 6 -12 21 -14
34 -2 13 -6 35 -10 49 -4 14 -7 36 -8 50 -1 14 -6 31 -10 38 -5 6 -5 17 -1 24
5 8 2 9 -11 4 -15 -6 -16 -4 -5 10 11 13 11 17 1 24 -8 4 -11 12 -7 18 3 6 -1
17 -9 25 -11 12 -12 17 -2 20 9 4 9 6 0 6 -7 1 -13 10 -13 21 0 11 -4 20 -10
20 -5 0 -7 7 -4 15 4 8 1 15 -7 15 -7 0 -9 3 -6 7 4 3 -1 15 -10 26 -11 13
-12 17 -4 12 11 -6 10 -2 -2 16 -9 13 -17 32 -17 42 0 11 -4 15 -12 11 -8 -5
-9 -2 -5 9 4 10 2 17 -4 17 -6 0 -8 7 -5 16 3 8 2 12 -4 9 -6 -3 -10 1 -10 10
0 9 -4 13 -10 10 -5 -3 -10 0 -10 8 0 18 -44 59 -54 50 -4 -5 -6 -1 -4 7 2 9
-4 15 -13 14 -11 -1 -15 5 -12 17 4 14 0 19 -15 19 -11 0 -22 5 -24 11 -2 5
-11 11 -20 13 -10 1 -21 6 -25 11 -4 4 -1 5 7 1 8 -4 6 0 -4 8 -11 9 -26 16
-34 16 -7 0 -10 5 -7 10 3 6 1 10 -4 10 -6 0 -11 -6 -11 -12 0 -9 -3 -10 -8
-2 -13 20 -137 40 -147 24 -4 -6 -10 -8 -15 -5 -5 3 -11 1 -15 -5 -4 -7 -13
-7 -26 0 -10 6 -19 7 -18 3 4 -22 -3 -25 -17 -7 -8 10 -13 13 -9 7 4 -9 1 -11
-9 -7 -9 3 -16 13 -16 21 0 13 -2 13 -17 2 -12 -10 -15 -10 -9 -1 7 12 -32 34
-46 25 -5 -2 -8 1 -8 8 0 8 -4 8 -12 2 -16 -12 -58 -11 -77 1 -9 6 -12 5 -7
-2z m910 -972 c3 -11 9 -29 12 -40 3 -11 1 -20 -4 -20 -5 0 -14 18 -20 40 -10
40 1 58 12 20z"/>
<path d="M2020 5750 c0 -5 5 -10 11 -10 5 0 7 5 4 10 -3 6 -8 10 -11 10 -2 0
-4 -4 -4 -10z"/>
<path d="M1995 5710 c3 -5 8 -10 11 -10 2 0 4 5 4 10 0 6 -5 10 -11 10 -5 0
-7 -4 -4 -10z"/>
</g>
</svg>
